<?xml version="1.0" encoding="UTF-8"?>
<svg width="100" height="70" viewBox="0 0 100 70" xmlns="http://www.w3.org/2000/svg">
  <defs>
    <linearGradient id="firewallGradient" x1="0%" y1="0%" x2="100%" y2="100%">
      <stop offset="0%" style="stop-color:#e74c3c;stop-opacity:1" />
      <stop offset="100%" style="stop-color:#c0392b;stop-opacity:1" />
    </linearGradient>
  </defs>
  
  <!-- Main firewall body -->
  <rect x="10" y="15" width="80" height="40" rx="5" fill="url(#firewallGradient)" stroke="#922b21" stroke-width="2"/>
  
  <!-- Shield icon -->
  <path d="M50 20 L45 25 L45 45 L50 50 L55 45 L55 25 Z" fill="white" opacity="0.9"/>
  
  <!-- Firewall ports/indicators -->
  <circle cx="20" cy="25" r="2" fill="#f39c12"/>
  <circle cx="30" cy="25" r="2" fill="#27ae60"/>
  <circle cx="40" cy="25" r="2" fill="#3498db"/>
  <circle cx="60" cy="25" r="2" fill="#3498db"/>
  <circle cx="70" cy="25" r="2" fill="#27ae60"/>
  <circle cx="80" cy="25" r="2" fill="#f39c12"/>
  
  <!-- Network lines -->
  <line x1="15" y1="35" x2="25" y2="35" stroke="white" stroke-width="1"/>
  <line x1="35" y1="35" x2="45" y2="35" stroke="white" stroke-width="1"/>
  <line x1="55" y1="35" x2="65" y2="35" stroke="white" stroke-width="1"/>
  <line x1="75" y1="35" x2="85" y2="35" stroke="white" stroke-width="1"/>
  
  <!-- Connection points -->
  <rect x="5" y="32" width="6" height="6" rx="1" fill="#34495e"/>
  <rect x="89" y="32" width="6" height="6" rx="1" fill="#34495e"/>
</svg>
